G04 Layer_Color=2752767*
%FSAX25Y25*%
%MOIN*%
G70*
G01*
G75*
%ADD17C,0.01000*%
%ADD29C,0.00200*%
%ADD30C,0.00267*%
%ADD31C,0.01600*%
%ADD32C,0.00800*%
D17*
X0416850Y0315998D02*
Y0310000D01*
X0419849D01*
X0420849Y0311000D01*
Y0314998D01*
X0419849Y0315998D01*
X0416850D01*
X0422848Y0313999D02*
Y0310000D01*
Y0311999D01*
X0423848Y0312999D01*
X0424848Y0313999D01*
X0425847D01*
X0428847Y0310000D02*
X0430846D01*
X0429846D01*
Y0313999D01*
X0428847D01*
X0433845Y0310000D02*
X0435844D01*
X0434845D01*
Y0315998D01*
X0433845D01*
X0438843Y0310000D02*
X0440843D01*
X0439843D01*
Y0315998D01*
X0438843D01*
X0449840D02*
Y0310000D01*
X0452839D01*
X0453838Y0311000D01*
Y0314998D01*
X0452839Y0315998D01*
X0449840D01*
X0455838Y0313999D02*
Y0310000D01*
Y0311999D01*
X0456837Y0312999D01*
X0457837Y0313999D01*
X0458837D01*
X0462836D02*
X0464835D01*
X0465835Y0312999D01*
Y0310000D01*
X0462836D01*
X0461836Y0311000D01*
X0462836Y0311999D01*
X0465835D01*
X0467834Y0313999D02*
Y0311000D01*
X0468834Y0310000D01*
X0469833Y0311000D01*
X0470833Y0310000D01*
X0471833Y0311000D01*
Y0313999D01*
X0473832Y0310000D02*
X0475831D01*
X0474832D01*
Y0313999D01*
X0473832D01*
X0478830Y0310000D02*
Y0313999D01*
X0481829D01*
X0482829Y0312999D01*
Y0310000D01*
X0486828Y0308001D02*
X0487827D01*
X0488827Y0309000D01*
Y0313999D01*
X0485828D01*
X0484828Y0312999D01*
Y0311000D01*
X0485828Y0310000D01*
X0488827D01*
X0490827D02*
Y0311000D01*
X0491826D01*
Y0310000D01*
X0490827D01*
X0467238Y0372998D02*
X0468238Y0373998D01*
X0470237D01*
X0471237Y0372998D01*
Y0371999D01*
X0470237Y0370999D01*
X0469237D01*
X0470237D01*
X0471237Y0369999D01*
Y0369000D01*
X0470237Y0368000D01*
X0468238D01*
X0467238Y0369000D01*
X0536819Y0368000D02*
X0538819D01*
X0537819D01*
Y0373998D01*
X0536819Y0372998D01*
X0541818Y0369000D02*
X0542817Y0368000D01*
X0544817D01*
X0545816Y0369000D01*
Y0372998D01*
X0544817Y0373998D01*
X0542817D01*
X0541818Y0372998D01*
Y0371999D01*
X0542817Y0370999D01*
X0545816D01*
X0547816Y0368000D02*
Y0369000D01*
X0548815D01*
Y0368000D01*
X0547816D01*
X0556813Y0373998D02*
X0554813Y0372998D01*
X0552814Y0370999D01*
Y0369000D01*
X0553814Y0368000D01*
X0555813D01*
X0556813Y0369000D01*
Y0369999D01*
X0555813Y0370999D01*
X0552814D01*
X0558812Y0372998D02*
X0559812Y0373998D01*
X0561811D01*
X0562811Y0372998D01*
Y0371999D01*
X0561811Y0370999D01*
X0562811Y0369999D01*
Y0369000D01*
X0561811Y0368000D01*
X0559812D01*
X0558812Y0369000D01*
Y0369999D01*
X0559812Y0370999D01*
X0558812Y0371999D01*
Y0372998D01*
X0559812Y0370999D02*
X0561811D01*
X0568809Y0373998D02*
X0564810D01*
Y0370999D01*
X0566810Y0371999D01*
X0567809D01*
X0568809Y0370999D01*
Y0369000D01*
X0567809Y0368000D01*
X0565810D01*
X0564810Y0369000D01*
X0570808Y0368000D02*
Y0371999D01*
X0571808D01*
X0572808Y0370999D01*
Y0368000D01*
Y0370999D01*
X0573807Y0371999D01*
X0574807Y0370999D01*
Y0368000D01*
X0576806D02*
X0578806D01*
X0577806D01*
Y0371999D01*
X0576806D01*
X0581805Y0368000D02*
X0583804D01*
X0582804D01*
Y0373998D01*
X0581805D01*
X0594801Y0368000D02*
X0592801Y0369999D01*
Y0371999D01*
X0594801Y0373998D01*
X0597800Y0372998D02*
X0598799Y0373998D01*
X0600799D01*
X0601798Y0372998D01*
Y0369000D01*
X0600799Y0368000D01*
X0598799D01*
X0597800Y0369000D01*
Y0372998D01*
X0603798Y0368000D02*
Y0369000D01*
X0604797D01*
Y0368000D01*
X0603798D01*
X0612795Y0373998D02*
X0608796D01*
Y0370999D01*
X0610795Y0371999D01*
X0611795D01*
X0612795Y0370999D01*
Y0369000D01*
X0611795Y0368000D01*
X0609796D01*
X0608796Y0369000D01*
X0614794Y0368000D02*
Y0371999D01*
X0615794D01*
X0616793Y0370999D01*
Y0368000D01*
Y0370999D01*
X0617793Y0371999D01*
X0618793Y0370999D01*
Y0368000D01*
X0620792D02*
Y0371999D01*
X0621792D01*
X0622791Y0370999D01*
Y0368000D01*
Y0370999D01*
X0623791Y0371999D01*
X0624791Y0370999D01*
Y0368000D01*
X0626790D02*
X0628790Y0369999D01*
Y0371999D01*
X0626790Y0373998D01*
X0671180Y0368000D02*
Y0373998D01*
X0674179D01*
X0675178Y0372998D01*
Y0370999D01*
X0674179Y0369999D01*
X0671180D01*
X0677178Y0373998D02*
X0681177D01*
X0679177D01*
Y0368000D01*
X0683176Y0373998D02*
Y0368000D01*
Y0370999D01*
X0687175D01*
Y0373998D01*
Y0368000D01*
X0721567D02*
Y0373998D01*
X0724566D01*
X0725566Y0372998D01*
Y0370999D01*
X0724566Y0369999D01*
X0721567D01*
X0723567D02*
X0725566Y0368000D01*
X0728565D02*
X0730564D01*
X0731564Y0369000D01*
Y0370999D01*
X0730564Y0371999D01*
X0728565D01*
X0727565Y0370999D01*
Y0369000D01*
X0728565Y0368000D01*
X0733563Y0371999D02*
Y0369000D01*
X0734563Y0368000D01*
X0737562D01*
Y0371999D01*
X0739562Y0368000D02*
Y0371999D01*
X0742560D01*
X0743560Y0370999D01*
Y0368000D01*
X0749558Y0373998D02*
Y0368000D01*
X0746559D01*
X0745560Y0369000D01*
Y0370999D01*
X0746559Y0371999D01*
X0749558D01*
X0471237Y0356000D02*
X0467238D01*
X0471237Y0359999D01*
Y0360998D01*
X0470237Y0361998D01*
X0468238D01*
X0467238Y0360998D01*
X0540818Y0356000D02*
X0536819D01*
X0540818Y0359999D01*
Y0360998D01*
X0539818Y0361998D01*
X0537819D01*
X0536819Y0360998D01*
X0542817Y0361998D02*
X0546816D01*
Y0360998D01*
X0542817Y0357000D01*
Y0356000D01*
X0548815D02*
Y0357000D01*
X0549815D01*
Y0356000D01*
X0548815D01*
X0557812Y0361998D02*
X0553814D01*
Y0358999D01*
X0555813Y0359999D01*
X0556813D01*
X0557812Y0358999D01*
Y0357000D01*
X0556813Y0356000D01*
X0554813D01*
X0553814Y0357000D01*
X0563811Y0361998D02*
X0559812D01*
Y0358999D01*
X0561811Y0359999D01*
X0562811D01*
X0563811Y0358999D01*
Y0357000D01*
X0562811Y0356000D01*
X0560812D01*
X0559812Y0357000D01*
X0565810D02*
X0566810Y0356000D01*
X0568809D01*
X0569809Y0357000D01*
Y0360998D01*
X0568809Y0361998D01*
X0566810D01*
X0565810Y0360998D01*
Y0359999D01*
X0566810Y0358999D01*
X0569809D01*
X0571808Y0356000D02*
Y0359999D01*
X0572808D01*
X0573807Y0358999D01*
Y0356000D01*
Y0358999D01*
X0574807Y0359999D01*
X0575807Y0358999D01*
Y0356000D01*
X0577806D02*
X0579805D01*
X0578806D01*
Y0359999D01*
X0577806D01*
X0582804Y0356000D02*
X0584804D01*
X0583804D01*
Y0361998D01*
X0582804D01*
X0595800Y0356000D02*
X0593801Y0357999D01*
Y0359999D01*
X0595800Y0361998D01*
X0598799Y0360998D02*
X0599799Y0361998D01*
X0601798D01*
X0602798Y0360998D01*
Y0357000D01*
X0601798Y0356000D01*
X0599799D01*
X0598799Y0357000D01*
Y0360998D01*
X0604797Y0356000D02*
Y0357000D01*
X0605797D01*
Y0356000D01*
X0604797D01*
X0609796Y0361998D02*
X0613794D01*
Y0360998D01*
X0609796Y0357000D01*
Y0356000D01*
X0615794D02*
Y0359999D01*
X0616793D01*
X0617793Y0358999D01*
Y0356000D01*
Y0358999D01*
X0618793Y0359999D01*
X0619793Y0358999D01*
Y0356000D01*
X0621792D02*
Y0359999D01*
X0622791D01*
X0623791Y0358999D01*
Y0356000D01*
Y0358999D01*
X0624791Y0359999D01*
X0625791Y0358999D01*
Y0356000D01*
X0627790D02*
X0629789Y0357999D01*
Y0359999D01*
X0627790Y0361998D01*
X0671180Y0356000D02*
Y0361998D01*
X0674179D01*
X0675178Y0360998D01*
Y0358999D01*
X0674179Y0357999D01*
X0671180D01*
X0677178Y0361998D02*
X0681177D01*
X0679177D01*
Y0356000D01*
X0683176Y0361998D02*
Y0356000D01*
Y0358999D01*
X0687175D01*
Y0361998D01*
Y0356000D01*
X0721567D02*
Y0361998D01*
X0724566D01*
X0725566Y0360998D01*
Y0358999D01*
X0724566Y0357999D01*
X0721567D01*
X0723567D02*
X0725566Y0356000D01*
X0728565D02*
X0730564D01*
X0731564Y0357000D01*
Y0358999D01*
X0730564Y0359999D01*
X0728565D01*
X0727565Y0358999D01*
Y0357000D01*
X0728565Y0356000D01*
X0733563Y0359999D02*
Y0357000D01*
X0734563Y0356000D01*
X0737562D01*
Y0359999D01*
X0739562Y0356000D02*
Y0359999D01*
X0742560D01*
X0743560Y0358999D01*
Y0356000D01*
X0749558Y0361998D02*
Y0356000D01*
X0746559D01*
X0745560Y0357000D01*
Y0358999D01*
X0746559Y0359999D01*
X0749558D01*
X0471237Y0344000D02*
X0467238D01*
X0471237Y0347999D01*
Y0348998D01*
X0470237Y0349998D01*
X0468238D01*
X0467238Y0348998D01*
X0536819D02*
X0537819Y0349998D01*
X0539818D01*
X0540818Y0348998D01*
Y0347999D01*
X0539818Y0346999D01*
X0538819D01*
X0539818D01*
X0540818Y0345999D01*
Y0345000D01*
X0539818Y0344000D01*
X0537819D01*
X0536819Y0345000D01*
X0542817Y0348998D02*
X0543817Y0349998D01*
X0545816D01*
X0546816Y0348998D01*
Y0347999D01*
X0545816Y0346999D01*
X0544817D01*
X0545816D01*
X0546816Y0345999D01*
Y0345000D01*
X0545816Y0344000D01*
X0543817D01*
X0542817Y0345000D01*
X0548815Y0344000D02*
Y0345000D01*
X0549815D01*
Y0344000D01*
X0548815D01*
X0556813D02*
Y0349998D01*
X0553814Y0346999D01*
X0557812D01*
X0563811Y0349998D02*
X0561811Y0348998D01*
X0559812Y0346999D01*
Y0345000D01*
X0560812Y0344000D01*
X0562811D01*
X0563811Y0345000D01*
Y0345999D01*
X0562811Y0346999D01*
X0559812D01*
X0569809Y0349998D02*
X0565810D01*
Y0346999D01*
X0567809Y0347999D01*
X0568809D01*
X0569809Y0346999D01*
Y0345000D01*
X0568809Y0344000D01*
X0566810D01*
X0565810Y0345000D01*
X0571808Y0344000D02*
Y0347999D01*
X0572808D01*
X0573807Y0346999D01*
Y0344000D01*
Y0346999D01*
X0574807Y0347999D01*
X0575807Y0346999D01*
Y0344000D01*
X0577806D02*
X0579805D01*
X0578806D01*
Y0347999D01*
X0577806D01*
X0582804Y0344000D02*
X0584804D01*
X0583804D01*
Y0349998D01*
X0582804D01*
X0595800Y0344000D02*
X0593801Y0345999D01*
Y0347999D01*
X0595800Y0349998D01*
X0598799Y0348998D02*
X0599799Y0349998D01*
X0601798D01*
X0602798Y0348998D01*
Y0345000D01*
X0601798Y0344000D01*
X0599799D01*
X0598799Y0345000D01*
Y0348998D01*
X0604797Y0344000D02*
Y0345000D01*
X0605797D01*
Y0344000D01*
X0604797D01*
X0609796Y0348998D02*
X0610795Y0349998D01*
X0612795D01*
X0613794Y0348998D01*
Y0347999D01*
X0612795Y0346999D01*
X0613794Y0345999D01*
Y0345000D01*
X0612795Y0344000D01*
X0610795D01*
X0609796Y0345000D01*
Y0345999D01*
X0610795Y0346999D01*
X0609796Y0347999D01*
Y0348998D01*
X0610795Y0346999D02*
X0612795D01*
X0619793Y0349998D02*
X0615794D01*
Y0346999D01*
X0617793Y0347999D01*
X0618793D01*
X0619793Y0346999D01*
Y0345000D01*
X0618793Y0344000D01*
X0616793D01*
X0615794Y0345000D01*
X0621792Y0344000D02*
Y0347999D01*
X0622791D01*
X0623791Y0346999D01*
Y0344000D01*
Y0346999D01*
X0624791Y0347999D01*
X0625791Y0346999D01*
Y0344000D01*
X0627790D02*
Y0347999D01*
X0628790D01*
X0629789Y0346999D01*
Y0344000D01*
Y0346999D01*
X0630789Y0347999D01*
X0631789Y0346999D01*
Y0344000D01*
X0633788D02*
X0635787Y0345999D01*
Y0347999D01*
X0633788Y0349998D01*
X0671180Y0344000D02*
Y0349998D01*
X0674179D01*
X0675178Y0348998D01*
Y0346999D01*
X0674179Y0345999D01*
X0671180D01*
X0677178Y0349998D02*
X0681177D01*
X0679177D01*
Y0344000D01*
X0683176Y0349998D02*
Y0344000D01*
Y0346999D01*
X0687175D01*
Y0349998D01*
Y0344000D01*
X0721567D02*
Y0349998D01*
X0724566D01*
X0725566Y0348998D01*
Y0346999D01*
X0724566Y0345999D01*
X0721567D01*
X0723567D02*
X0725566Y0344000D01*
X0728565D02*
X0730564D01*
X0731564Y0345000D01*
Y0346999D01*
X0730564Y0347999D01*
X0728565D01*
X0727565Y0346999D01*
Y0345000D01*
X0728565Y0344000D01*
X0733563Y0347999D02*
Y0345000D01*
X0734563Y0344000D01*
X0737562D01*
Y0347999D01*
X0739562Y0344000D02*
Y0347999D01*
X0742560D01*
X0743560Y0346999D01*
Y0344000D01*
X0749558Y0349998D02*
Y0344000D01*
X0746559D01*
X0745560Y0345000D01*
Y0346999D01*
X0746559Y0347999D01*
X0749558D01*
X0467238Y0332000D02*
X0469237D01*
X0468238D01*
Y0337998D01*
X0467238Y0336998D01*
X0475235Y0332000D02*
Y0337998D01*
X0472236Y0334999D01*
X0476235D01*
X0536819Y0336998D02*
X0537819Y0337998D01*
X0539818D01*
X0540818Y0336998D01*
Y0335999D01*
X0539818Y0334999D01*
X0538819D01*
X0539818D01*
X0540818Y0333999D01*
Y0333000D01*
X0539818Y0332000D01*
X0537819D01*
X0536819Y0333000D01*
X0546816Y0337998D02*
X0542817D01*
Y0334999D01*
X0544817Y0335999D01*
X0545816D01*
X0546816Y0334999D01*
Y0333000D01*
X0545816Y0332000D01*
X0543817D01*
X0542817Y0333000D01*
X0548815Y0332000D02*
Y0333000D01*
X0549815D01*
Y0332000D01*
X0548815D01*
X0556813D02*
Y0337998D01*
X0553814Y0334999D01*
X0557812D01*
X0559812Y0336998D02*
X0560812Y0337998D01*
X0562811D01*
X0563811Y0336998D01*
Y0335999D01*
X0562811Y0334999D01*
X0561811D01*
X0562811D01*
X0563811Y0333999D01*
Y0333000D01*
X0562811Y0332000D01*
X0560812D01*
X0559812Y0333000D01*
X0565810Y0336998D02*
X0566810Y0337998D01*
X0568809D01*
X0569809Y0336998D01*
Y0335999D01*
X0568809Y0334999D01*
X0567809D01*
X0568809D01*
X0569809Y0333999D01*
Y0333000D01*
X0568809Y0332000D01*
X0566810D01*
X0565810Y0333000D01*
X0571808Y0332000D02*
Y0335999D01*
X0572808D01*
X0573807Y0334999D01*
Y0332000D01*
Y0334999D01*
X0574807Y0335999D01*
X0575807Y0334999D01*
Y0332000D01*
X0577806D02*
X0579805D01*
X0578806D01*
Y0335999D01*
X0577806D01*
X0582804Y0332000D02*
X0584804D01*
X0583804D01*
Y0337998D01*
X0582804D01*
X0595800Y0332000D02*
X0593801Y0333999D01*
Y0335999D01*
X0595800Y0337998D01*
X0598799Y0336998D02*
X0599799Y0337998D01*
X0601798D01*
X0602798Y0336998D01*
Y0333000D01*
X0601798Y0332000D01*
X0599799D01*
X0598799Y0333000D01*
Y0336998D01*
X0604797Y0332000D02*
Y0333000D01*
X0605797D01*
Y0332000D01*
X0604797D01*
X0609796Y0333000D02*
X0610795Y0332000D01*
X0612795D01*
X0613794Y0333000D01*
Y0336998D01*
X0612795Y0337998D01*
X0610795D01*
X0609796Y0336998D01*
Y0335999D01*
X0610795Y0334999D01*
X0613794D01*
X0615794Y0332000D02*
Y0335999D01*
X0616793D01*
X0617793Y0334999D01*
Y0332000D01*
Y0334999D01*
X0618793Y0335999D01*
X0619793Y0334999D01*
Y0332000D01*
X0621792D02*
Y0335999D01*
X0622791D01*
X0623791Y0334999D01*
Y0332000D01*
Y0334999D01*
X0624791Y0335999D01*
X0625791Y0334999D01*
Y0332000D01*
X0627790D02*
X0629789Y0333999D01*
Y0335999D01*
X0627790Y0337998D01*
X0671180Y0332000D02*
Y0337998D01*
X0674179D01*
X0675178Y0336998D01*
Y0334999D01*
X0674179Y0333999D01*
X0671180D01*
X0677178Y0337998D02*
X0681177D01*
X0679177D01*
Y0332000D01*
X0683176Y0337998D02*
Y0332000D01*
Y0334999D01*
X0687175D01*
Y0337998D01*
Y0332000D01*
X0721567D02*
Y0337998D01*
X0724566D01*
X0725566Y0336998D01*
Y0334999D01*
X0724566Y0333999D01*
X0721567D01*
X0723567D02*
X0725566Y0332000D01*
X0728565D02*
X0730564D01*
X0731564Y0333000D01*
Y0334999D01*
X0730564Y0335999D01*
X0728565D01*
X0727565Y0334999D01*
Y0333000D01*
X0728565Y0332000D01*
X0733563Y0335999D02*
Y0333000D01*
X0734563Y0332000D01*
X0737562D01*
Y0335999D01*
X0739562Y0332000D02*
Y0335999D01*
X0742560D01*
X0743560Y0334999D01*
Y0332000D01*
X0749558Y0337998D02*
Y0332000D01*
X0746559D01*
X0745560Y0333000D01*
Y0334999D01*
X0746559Y0335999D01*
X0749558D01*
X0471237Y0320000D02*
X0467238D01*
X0471237Y0323999D01*
Y0324998D01*
X0470237Y0325998D01*
X0468238D01*
X0467238Y0324998D01*
X0473236Y0320000D02*
X0475235D01*
X0474236D01*
Y0325998D01*
X0473236Y0324998D01*
X0486035Y0325998D02*
X0490034D01*
X0488035D01*
Y0320000D01*
X0493033D02*
X0495033D01*
X0496032Y0321000D01*
Y0322999D01*
X0495033Y0323999D01*
X0493033D01*
X0492033Y0322999D01*
Y0321000D01*
X0493033Y0320000D01*
X0499031Y0324998D02*
Y0323999D01*
X0498032D01*
X0500031D01*
X0499031D01*
Y0321000D01*
X0500031Y0320000D01*
X0504030Y0323999D02*
X0506029D01*
X0507029Y0322999D01*
Y0320000D01*
X0504030D01*
X0503030Y0321000D01*
X0504030Y0321999D01*
X0507029D01*
X0509028Y0320000D02*
X0511027D01*
X0510028D01*
Y0325998D01*
X0509028D01*
D29*
X0214700Y0465200D02*
Y0466800D01*
X0216300D01*
Y0465200D01*
X0214700D01*
Y0475200D02*
Y0476800D01*
X0216300D01*
Y0475200D01*
X0214700D01*
X0379700Y0468700D02*
Y0470300D01*
X0381300D01*
Y0468700D01*
X0379700D01*
Y0478700D02*
Y0480300D01*
X0381300D01*
Y0478700D01*
X0379700D01*
X0332000Y0327700D02*
X0331200Y0329300D01*
X0332800D01*
X0332000Y0327700D01*
X0343500D02*
X0342700Y0329300D01*
X0344300D01*
X0343500Y0327700D01*
X0276200Y0387200D02*
Y0388800D01*
X0277800D01*
Y0387200D01*
X0276200D01*
X0286200D02*
Y0388800D01*
X0287800D01*
Y0387200D01*
X0286200D01*
X0296200D02*
Y0388800D01*
X0297800D01*
Y0387200D01*
X0296200D01*
X0306200D02*
Y0388800D01*
X0307800D01*
Y0387200D01*
X0306200D01*
X0276200Y0417200D02*
Y0418800D01*
X0277800D01*
Y0417200D01*
X0276200D01*
X0286200D02*
Y0418800D01*
X0287800D01*
Y0417200D01*
X0286200D01*
X0296200D02*
Y0418800D01*
X0297800D01*
Y0417200D01*
X0296200D01*
X0306200D02*
Y0418800D01*
X0307800D01*
Y0417200D01*
X0306200D01*
X0217500Y0386700D02*
X0217900Y0387100D01*
X0218300D01*
X0217900Y0387500D01*
X0218300Y0387900D01*
X0217900D01*
X0217500Y0388300D01*
X0217100Y0387900D01*
X0216700D01*
X0217100Y0387500D01*
X0216700Y0387100D01*
X0217100D01*
X0217500Y0386700D01*
Y0416700D02*
X0217900Y0417100D01*
X0218300D01*
X0217900Y0417500D01*
X0218300Y0417900D01*
X0217900D01*
X0217500Y0418300D01*
X0217100Y0417900D01*
X0216700D01*
X0217100Y0417500D01*
X0216700Y0417100D01*
X0217100D01*
X0217500Y0416700D01*
X0288700Y0312200D02*
Y0313800D01*
X0290300D01*
Y0312200D01*
X0288700D01*
X0298700D02*
Y0313800D01*
X0300300D01*
Y0312200D01*
X0298700D01*
X0419250Y0356600D02*
X0416850Y0361400D01*
X0421650D01*
X0419250Y0356600D01*
Y0344600D02*
X0420450Y0345800D01*
X0421650D01*
X0420450Y0347000D01*
X0421650Y0348200D01*
X0420450D01*
X0419250Y0349400D01*
X0418050Y0348200D01*
X0416850D01*
X0418050Y0347000D01*
X0416850Y0345800D01*
X0418050D01*
X0419250Y0344600D01*
X0416850Y0332600D02*
Y0337400D01*
X0421650D01*
Y0332600D01*
X0416850D01*
D30*
X0269623Y0479122D02*
G03*
X0269623Y0479122I-0000800J0000000D01*
G01*
X0289623D02*
G03*
X0289623Y0479122I-0000800J0000000D01*
G01*
X0309623D02*
G03*
X0309623Y0479122I-0000800J0000000D01*
G01*
D31*
X0421649Y0388398D02*
X0420449Y0389598D01*
X0418050D01*
X0416850Y0388398D01*
Y0387198D01*
X0418050Y0385999D01*
X0420449D01*
X0421649Y0384799D01*
Y0383600D01*
X0420449Y0382400D01*
X0418050D01*
X0416850Y0383600D01*
X0424048Y0387198D02*
Y0383600D01*
X0425248Y0382400D01*
X0428847D01*
Y0381200D01*
X0427647Y0380001D01*
X0426447D01*
X0428847Y0382400D02*
Y0387198D01*
X0431246Y0382400D02*
Y0387198D01*
X0432445D01*
X0433645Y0385999D01*
Y0382400D01*
Y0385999D01*
X0434845Y0387198D01*
X0436044Y0385999D01*
Y0382400D01*
X0438443Y0389598D02*
Y0382400D01*
X0442042D01*
X0443242Y0383600D01*
Y0384799D01*
Y0385999D01*
X0442042Y0387198D01*
X0438443D01*
X0446841Y0382400D02*
X0449240D01*
X0450440Y0383600D01*
Y0385999D01*
X0449240Y0387198D01*
X0446841D01*
X0445641Y0385999D01*
Y0383600D01*
X0446841Y0382400D01*
X0452839D02*
X0455238D01*
X0454038D01*
Y0389598D01*
X0452839D01*
X0467238D02*
Y0382400D01*
Y0385999D01*
X0472036D01*
Y0389598D01*
Y0382400D01*
X0474436D02*
X0476835D01*
X0475635D01*
Y0387198D01*
X0474436D01*
X0481633Y0388398D02*
Y0387198D01*
X0480434D01*
X0482833D01*
X0481633D01*
Y0383600D01*
X0482833Y0382400D01*
X0498428Y0388398D02*
X0497228Y0389598D01*
X0494829D01*
X0493629Y0388398D01*
Y0383600D01*
X0494829Y0382400D01*
X0497228D01*
X0498428Y0383600D01*
X0502027Y0382400D02*
X0504426D01*
X0505625Y0383600D01*
Y0385999D01*
X0504426Y0387198D01*
X0502027D01*
X0500827Y0385999D01*
Y0383600D01*
X0502027Y0382400D01*
X0508025Y0387198D02*
Y0383600D01*
X0509224Y0382400D01*
X0512823D01*
Y0387198D01*
X0515222Y0382400D02*
Y0387198D01*
X0518821D01*
X0520021Y0385999D01*
Y0382400D01*
X0523620Y0388398D02*
Y0387198D01*
X0522420D01*
X0524819D01*
X0523620D01*
Y0383600D01*
X0524819Y0382400D01*
X0541618Y0389598D02*
X0536819D01*
Y0385999D01*
X0539219D01*
X0536819D01*
Y0382400D01*
X0544017D02*
X0546416D01*
X0545217D01*
Y0387198D01*
X0544017D01*
X0550015Y0382400D02*
Y0387198D01*
X0553614D01*
X0554813Y0385999D01*
Y0382400D01*
X0557213D02*
X0559612D01*
X0558412D01*
Y0387198D01*
X0557213D01*
X0563211Y0382400D02*
X0566810D01*
X0568009Y0383600D01*
X0566810Y0384799D01*
X0564410D01*
X0563211Y0385999D01*
X0564410Y0387198D01*
X0568009D01*
X0570408Y0389598D02*
Y0382400D01*
Y0385999D01*
X0571608Y0387198D01*
X0574007D01*
X0575207Y0385999D01*
Y0382400D01*
X0581205D02*
X0578806D01*
X0577606Y0383600D01*
Y0385999D01*
X0578806Y0387198D01*
X0581205D01*
X0582405Y0385999D01*
Y0384799D01*
X0577606D01*
X0589602Y0389598D02*
Y0382400D01*
X0586003D01*
X0584804Y0383600D01*
Y0385999D01*
X0586003Y0387198D01*
X0589602D01*
X0599199Y0389598D02*
Y0382400D01*
Y0385999D01*
X0603998D01*
Y0389598D01*
Y0382400D01*
X0607596D02*
X0609996D01*
X0611195Y0383600D01*
Y0385999D01*
X0609996Y0387198D01*
X0607596D01*
X0606397Y0385999D01*
Y0383600D01*
X0607596Y0382400D01*
X0613594D02*
X0615994D01*
X0614794D01*
Y0389598D01*
X0613594D01*
X0623191Y0382400D02*
X0620792D01*
X0619593Y0383600D01*
Y0385999D01*
X0620792Y0387198D01*
X0623191D01*
X0624391Y0385999D01*
Y0384799D01*
X0619593D01*
X0638786Y0388398D02*
X0637587Y0389598D01*
X0635187D01*
X0633988Y0388398D01*
Y0387198D01*
X0635187Y0385999D01*
X0637587D01*
X0638786Y0384799D01*
Y0383600D01*
X0637587Y0382400D01*
X0635187D01*
X0633988Y0383600D01*
X0641186Y0382400D02*
X0643585D01*
X0642385D01*
Y0387198D01*
X0641186D01*
X0647184D02*
X0651982D01*
X0647184Y0382400D01*
X0651982D01*
X0657980D02*
X0655581D01*
X0654381Y0383600D01*
Y0385999D01*
X0655581Y0387198D01*
X0657980D01*
X0659180Y0385999D01*
Y0384799D01*
X0654381D01*
X0671180Y0382400D02*
Y0389598D01*
X0674779D01*
X0675978Y0388398D01*
Y0385999D01*
X0674779Y0384799D01*
X0671180D01*
X0678377Y0382400D02*
X0680777D01*
X0679577D01*
Y0389598D01*
X0678377D01*
X0685575Y0387198D02*
X0687974D01*
X0689174Y0385999D01*
Y0382400D01*
X0685575D01*
X0684375Y0383600D01*
X0685575Y0384799D01*
X0689174D01*
X0692773Y0388398D02*
Y0387198D01*
X0691573D01*
X0693972D01*
X0692773D01*
Y0383600D01*
X0693972Y0382400D01*
X0701170D02*
X0698771D01*
X0697571Y0383600D01*
Y0385999D01*
X0698771Y0387198D01*
X0701170D01*
X0702370Y0385999D01*
Y0384799D01*
X0697571D01*
X0709567Y0389598D02*
Y0382400D01*
X0705969D01*
X0704769Y0383600D01*
Y0385999D01*
X0705969Y0387198D01*
X0709567D01*
X0721567Y0389598D02*
Y0382400D01*
Y0385999D01*
X0726366D01*
Y0389598D01*
Y0382400D01*
X0729965D02*
X0732364D01*
X0733563Y0383600D01*
Y0385999D01*
X0732364Y0387198D01*
X0729965D01*
X0728765Y0385999D01*
Y0383600D01*
X0729965Y0382400D01*
X0735963D02*
X0738362D01*
X0737162D01*
Y0389598D01*
X0735963D01*
X0745560Y0382400D02*
X0743160D01*
X0741961Y0383600D01*
Y0385999D01*
X0743160Y0387198D01*
X0745560D01*
X0746759Y0385999D01*
Y0384799D01*
X0741961D01*
X0756356Y0389598D02*
X0761155D01*
X0758755D01*
Y0382400D01*
X0763554Y0387198D02*
Y0383600D01*
X0764753Y0382400D01*
X0768352D01*
Y0381200D01*
X0767153Y0380001D01*
X0765953D01*
X0768352Y0382400D02*
Y0387198D01*
X0770751Y0380001D02*
Y0387198D01*
X0774350D01*
X0775550Y0385999D01*
Y0383600D01*
X0774350Y0382400D01*
X0770751D01*
X0781548D02*
X0779149D01*
X0777949Y0383600D01*
Y0385999D01*
X0779149Y0387198D01*
X0781548D01*
X0782748Y0385999D01*
Y0384799D01*
X0777949D01*
X0408050Y0393200D02*
X0794747D01*
X0408050Y0377000D02*
X0794747D01*
X0408050Y0393200D02*
Y0317000D01*
X0794747Y0393200D02*
Y0317000D01*
X0462838Y0393200D02*
Y0317000D01*
X0532419Y0393200D02*
Y0317000D01*
X0666780Y0393200D02*
Y0317000D01*
X0717167Y0393200D02*
Y0317000D01*
X0408050Y0329000D02*
X0794747D01*
X0408050Y0317000D02*
X0794747D01*
D32*
X0421650Y0371000D02*
G03*
X0421650Y0371000I-0002400J0000000D01*
G01*
M02*
