G04 Layer_Color=128*
%FSAX25Y25*%
%MOIN*%
G70*
G01*
G75*
%ADD29C,0.00200*%
D29*
X0213728Y0466000D02*
X0217272D01*
X0215500Y0464228D02*
Y0467772D01*
X0213728Y0476000D02*
X0217272D01*
X0215500Y0474228D02*
Y0477772D01*
X0267839Y0479122D02*
X0269807D01*
X0268823Y0478138D02*
Y0480106D01*
X0287839Y0479122D02*
X0289807D01*
X0288823Y0478138D02*
Y0480106D01*
X0307839Y0479122D02*
X0309807D01*
X0308823Y0478138D02*
Y0480106D01*
X0378728Y0469500D02*
X0382272D01*
X0380500Y0467728D02*
Y0471272D01*
X0378728Y0479500D02*
X0382272D01*
X0380500Y0477728D02*
Y0481272D01*
X0330622Y0328500D02*
X0333378D01*
X0332000Y0327122D02*
Y0329878D01*
X0342122Y0328500D02*
X0344878D01*
X0343500Y0327122D02*
Y0329878D01*
X0275228Y0388000D02*
X0278772D01*
X0277000Y0386228D02*
Y0389772D01*
X0285228Y0388000D02*
X0288772D01*
X0287000Y0386228D02*
Y0389772D01*
X0295228Y0388000D02*
X0298772D01*
X0297000Y0386228D02*
Y0389772D01*
X0305228Y0388000D02*
X0308772D01*
X0307000Y0386228D02*
Y0389772D01*
X0275228Y0418000D02*
X0278772D01*
X0277000Y0416228D02*
Y0419772D01*
X0285228Y0418000D02*
X0288772D01*
X0287000Y0416228D02*
Y0419772D01*
X0295228Y0418000D02*
X0298772D01*
X0297000Y0416228D02*
Y0419772D01*
X0305228Y0418000D02*
X0308772D01*
X0307000Y0416228D02*
Y0419772D01*
X0215827Y0387500D02*
X0219173D01*
X0217500Y0385827D02*
Y0389173D01*
X0215827Y0417500D02*
X0219173D01*
X0217500Y0415827D02*
Y0419173D01*
X0287728Y0313000D02*
X0291272D01*
X0289500Y0311228D02*
Y0314772D01*
X0297728Y0313000D02*
X0301272D01*
X0299500Y0311228D02*
Y0314772D01*
M02*
