M48
;Layer_Color=9474304
;FILE_FORMAT=2:5
INCH
;TYPE=PLATED
T1F00S00C0.01968
T2F00S00C0.02756
T3F00S00C0.03346
T4F00S00C0.03543
%
T01
X0268823Y0479122
X0288823
X0308823
T02
X0332000Y0328500
X0343500
T03
X0217500Y0387500
Y0417500
T04
X0289500Y0313000
X0299500
X0297000Y0388000
X0287000
X0277000
X0307000
Y0418000
X0297000
X0287000
X0277000
X0215500Y0466000
X0380500Y0469500
Y0479500
X0215500Y0476000
M30
